<svg xmlns="http://www.w3.org/2000/svg" xmlns:xlink="http://www.w3.org/1999/xlink" width="25" height="25" viewBox="0 0 25 25">
  <path d="M12.5,25 C5.59644063,25 0,19.4035594 0,12.5 C0,5.59644063 5.59644063,0 12.5,0 C19.4035594,0 25,5.59644063 25,12.5 C25,19.4035594 19.4035594,25 12.5,25 Z M9.54,15.98 C9.54,15.98 10.392,16.928 11.94,17.108 L11.94,18.212 L12.972,18.212 L12.972,17.108 C14.436,16.916 15.288,15.872 15.288,14.648 C15.288,11.96 11.244,12.212 11.244,10.784 C11.244,10.184 11.808,9.764 12.528,9.764 C13.596,9.764 14.412,10.508 14.412,10.508 L15.084,9.248 C15.084,9.248 14.364,8.492 12.972,8.372 L12.972,7.268 L11.94,7.268 L11.94,8.396 C10.608,8.612 9.684,9.572 9.684,10.808 C9.684,13.388 13.74,13.244 13.74,14.684 C13.74,15.38 13.152,15.716 12.504,15.716 C11.304,15.716 10.38,14.816 10.38,14.816 L9.54,15.98 Z"/>
</svg>